<?xml version="1.0" encoding="UTF-8"?>
<svg xmlns="http://www.w3.org/2000/svg" version="1.1" viewBox="0 0 24 24">
  <!-- Generator: Adobe Illustrator 30.3.0, SVG Export Plug-In . SVG Version: 2.1.3 Build 182)  -->
  <defs>
    <style>
      .st0 {
        fill: #e2e3e4;
        stroke: #1e2939;
        stroke-linecap: round;
        stroke-linejoin: round;
      }

      .st1 {
        display: none;
      }

      .st1, .st2 {
        fill: #fe795d;
      }

      .st3 {
        fill: #1e2939;
      }
    </style>
  </defs>
  <g id="Layer_2">
    <g>
      <circle class="st1" cx="12" cy="12" r="11.9"/>
      <g>
        <rect class="st2" x=".5" y=".5" width="23" height="23" rx="3.8" ry="3.8"/>
        <path class="st2" d="M19.7,1c1.8,0,3.3,1.5,3.3,3.3v15.4c0,1.8-1.5,3.3-3.3,3.3H4.3c-1.8,0-3.3-1.5-3.3-3.3V4.3c0-1.8,1.5-3.3,3.3-3.3h15.4M19.7,0H4.3C1.9,0,0,1.9,0,4.3v15.4c0,2.4,1.9,4.3,4.3,4.3h15.4c2.4,0,4.3-1.9,4.3-4.3V4.3c0-2.4-1.9-4.3-4.3-4.3h0Z"/>
      </g>
    </g>
    <g>
      <circle class="st1" cx="12" cy="12" r="11.9"/>
      <path class="st3" d="M19.7,1c1.8,0,3.3,1.5,3.3,3.3v15.4c0,1.8-1.5,3.3-3.3,3.3H4.3c-1.8,0-3.3-1.5-3.3-3.3V4.3c0-1.8,1.5-3.3,3.3-3.3h15.4M19.7,0H4.3C1.9,0,0,1.9,0,4.3v15.4c0,2.4,1.9,4.3,4.3,4.3h15.4c2.4,0,4.3-1.9,4.3-4.3V4.3c0-2.4-1.9-4.3-4.3-4.3h0Z"/>
    </g>
  </g>
  <g id="Layer_1">
    <g>
      <path class="st0" d="M13.6,3.8h-6.5c-.9,0-1.6.7-1.6,1.6v13c0,.9.7,1.6,1.6,1.6h9.8c.9,0,1.6-.7,1.6-1.6v-9.8l-4.9-4.9Z"/>
      <polyline class="st0" points="13.6 3.8 13.6 8.7 18.5 8.7"/>
      <line class="st0" x1="15.3" y1="12.8" x2="8.7" y2="12.8"/>
      <line class="st0" x1="15.3" y1="16.1" x2="8.7" y2="16.1"/>
      <polyline class="st0" points="10.4 9.6 9.6 9.6 8.7 9.6"/>
    </g>
  </g>
</svg>